<svg width="25" height="31" viewBox="0 0 25 31" fill="none" xmlns="http://www.w3.org/2000/svg">
<path d="M2.59415 27.211H0.338747C0.249143 27.2089 0.161724 27.2416 0.0961604 27.3006C0.0349674 27.3575 0 27.4383 0 27.5214V29.7986C0 29.8817 0.032782 29.9625 0.0961604 30.0172C0.16391 30.074 0.249143 30.1046 0.338747 30.1024H2.59196C2.68375 30.109 2.77335 30.0806 2.84329 30.0215C2.90885 29.9669 2.94601 29.886 2.94382 29.803V29.1342H2.31441V29.4883H0.622857V27.8405H2.31441V28.2032H2.93726V27.5279C2.93945 27.4449 2.90667 27.364 2.84329 27.3072C2.77554 27.2438 2.68594 27.211 2.59196 27.2132" fill="#1A1A1A"/>
<path d="M6.71801 29.4838H5.03301V27.2109H4.41016V29.8007C4.41016 29.8859 4.44512 29.9646 4.5085 30.0193C4.57625 30.0783 4.66367 30.1089 4.75327 30.1067H6.99774C7.08735 30.1089 7.17477 30.0783 7.24033 30.0193C7.3059 29.9668 7.34305 29.8859 7.34086 29.8007V27.2109H6.71582V29.4838H6.71801Z" fill="#1A1A1A"/>
<path d="M9.1578 27.2109C9.0682 27.2109 8.98297 27.2393 8.91522 27.2984C8.85184 27.3508 8.8125 27.4295 8.8125 27.5147V28.6402C8.8125 28.7255 8.84965 28.8063 8.91522 28.861C8.98078 28.92 9.0682 28.9506 9.1578 28.9484H11.1225V29.4773H8.81469V30.1045H11.4088C11.4962 30.1045 11.5815 30.0739 11.647 30.0149C11.7104 29.9602 11.7476 29.8794 11.7454 29.7942V28.6424C11.7454 28.5572 11.7104 28.4763 11.647 28.4195C11.5815 28.3605 11.4962 28.3299 11.4088 28.3321H9.43536V27.8382H11.7454V27.2109H9.1578Z" fill="#1A1A1A"/>
<path d="M13.2756 27.2178H13.2188V27.2724V27.7816V27.8384H13.2756H14.3727V30.0501V30.107H14.4295H14.9387H14.9955V30.0501V27.8384H16.0948H16.1516V27.7816V27.2724V27.2178H16.0948H13.2756Z" fill="#1A1A1A"/>
<path d="M24.3592 27.218L23.4698 28.337L22.6218 27.2158L22.0273 27.218V30.1072H22.6502V28.2823L23.1813 28.9576H23.7451L24.3308 28.2452V30.1072H24.9559L24.9537 27.2158L24.3592 27.218Z" fill="#1A1A1A"/>
<path d="M20.4482 27.3034C20.3805 27.2444 20.2931 27.2138 20.2035 27.2182H17.9721C17.8825 27.216 17.7973 27.2466 17.7295 27.3034C17.664 27.3559 17.6268 27.4367 17.629 27.522V29.6659V29.7927C17.629 29.8757 17.664 29.9566 17.7273 30.0112C17.7951 30.0702 17.8825 30.1008 17.9721 30.0964H20.2035C20.2931 30.0986 20.3783 30.068 20.4461 30.0112C20.5116 29.9588 20.5488 29.8779 20.5466 29.7927V27.5198C20.5466 27.4367 20.5116 27.3559 20.4482 27.3012V27.3034ZM19.9194 28.6562V29.478H18.2562V27.8367H19.9194V28.6584V28.6562Z" fill="#1A1A1A"/>
<path d="M15.208 10.8208V9.64716H9.74871V14.9644H15.2167V13.8323H17.2274V15.9894C17.2274 16.2626 17.105 16.5226 16.893 16.6931C16.6723 16.881 16.3903 16.9816 16.1019 16.9706H8.83082C8.54452 16.9816 8.26478 16.8832 8.05061 16.6931C7.84954 16.5161 7.7359 16.2582 7.74246 15.9894V8.63748C7.73809 8.36648 7.84954 8.10641 8.05061 7.92501C8.2626 7.72832 8.54234 7.62561 8.83082 7.63653H16.0887C16.3794 7.62779 16.6635 7.73051 16.8799 7.92501C17.0919 8.10204 17.2164 8.36429 17.2143 8.64185V10.8208H15.208Z" fill="#1A1A1A"/>
<path d="M21.707 12.3044H24.9393V7.0309V6.15234H21.707V12.3044Z" fill="#DDA817"/>
<path d="M3.25183 6.15234H0.0195312V12.3044H3.25183V6.15234Z" fill="#384F94"/>
<path d="M21.7094 21.5339H18.7109V24.6067H22.0154C22.7737 24.6329 23.5124 24.3707 24.085 23.8724C24.6423 23.4178 24.957 22.7316 24.9417 22.0125V18.459H21.7094V21.5361V21.5339Z" fill="#D94E1F"/>
<path d="M3.25238 21.5342V18.457H0.0200751V20.92V22.0106C0.00477681 22.7274 0.312927 23.4093 0.859293 23.8704C1.43407 24.3731 2.1815 24.6353 2.94423 24.6047H6.24865V21.532H3.25019L3.25238 21.5342Z" fill="#6D2B81"/>
<path d="M12.4808 21.5332H6.25V24.606H12.4808V21.5332Z" fill="#941743"/>
<path d="M18.7112 21.5332H12.4805V24.606H18.7112V21.5332Z" fill="#CD2A1E"/>
<path d="M24.9393 12.3047H21.707V18.4568H24.9393V12.3047Z" fill="#E08A1A"/>
<path d="M3.25183 12.3047H0.0195312V18.4568H3.25183V12.3047Z" fill="#3C2680"/>
<path d="M24.1003 0.736721C23.5233 0.234064 22.7781 -0.0281915 22.0154 0.00240502H18.7109V3.07517H21.7094V6.1523H24.9417V2.59874C24.957 1.8819 24.6488 1.20004 24.1025 0.738906L24.1003 0.736721Z" fill="#C1BD1A"/>
<path d="M3.25236 3.07772H6.25082V0.00276963H2.9464C2.18804 -0.0234559 1.44936 0.2388 0.876766 0.737085C0.319473 1.19385 0.00476599 1.88008 0.0200642 2.5991V6.15266H3.25236V3.07553V3.07772Z" fill="#0F84B8"/>
<path d="M12.4808 0.00292969H6.25V3.07569H12.4808V0.00292969Z" fill="#56983C"/>
<path d="M18.7112 0.00292969H12.4805V3.07569H18.7112V0.00292969Z" fill="#A6B628"/>
</svg>
